<svg version="1.0" xmlns="http://www.w3.org/2000/svg"
     width="260.000000pt" height="160.000000pt" viewBox="0 0 260.000000 160.000000"
     preserveAspectRatio="xMidYMid meet">
    <g transform="translate(0.000000,160.000000) scale(0.100000,-0.100000)"
       fill="#000000" stroke="none">
        <path d="M679 1584 c-60 -18 -84 -52 -75 -105 l6 -39 -74 -35 c-263 -125 -433
-348 -507 -665 -26 -110 -36 -363 -17 -400 18 -35 163 -105 268 -129 144 -33
237 -43 445 -46 l200 -4 120 -40 c163 -54 299 -75 434 -68 165 9 278 47 420
142 l67 45 155 0 c177 0 264 15 357 61 69 34 112 85 112 132 0 44 -28 87 -66
103 -20 8 -171 30 -336 49 -165 18 -304 37 -308 42 -5 4 -25 53 -45 108 -168
452 -483 725 -857 743 l-108 5 0 28 c0 41 -9 58 -41 74 -35 18 -89 18 -150 -1z
m134 -58 c9 -23 -9 -36 -65 -48 -63 -13 -88 -7 -88 21 0 38 140 63 153 27z
m144 -118 c-2 -26 37 -50 86 -52 46 -2 49 29 5 48 -43 19 -18 19 60 1 188 -45
376 -178 502 -357 78 -110 201 -365 200 -416 0 -11 -22 -26 -63 -45 -35 -15
-114 -66 -177 -113 -188 -139 -304 -194 -486 -231 -130 -25 -561 -26 -689 0
-119 24 -240 61 -290 90 -51 29 -57 61 -44 225 31 385 192 643 496 796 93 46
208 71 355 75 44 1 48 -1 45 -21z m1130 -868 c97 -11 178 -22 180 -24 2 -2
-20 -17 -49 -34 -29 -16 -135 -88 -234 -159 -251 -179 -338 -213 -547 -213
-118 0 -279 25 -350 53 -29 12 -27 13 79 40 143 36 262 96 404 202 142 106
236 155 296 155 24 0 124 -9 221 -20z m431 -62 c7 -7 12 -23 12 -36 0 -88
-138 -141 -365 -142 l-120 0 99 66 c149 99 206 124 292 124 41 0 75 -5 82 -12z"/>
        <path d="M665 1351 c-3 -6 -8 -32 -12 -59 -4 -41 -3 -50 12 -56 27 -10 35 4
38 64 2 44 -1 55 -15 58 -9 2 -19 -2 -23 -7z"/>
        <path d="M1182 1308 c3 -25 64 -70 87 -66 31 6 22 35 -18 61 -50 34 -74 35
-69 5z"/>
        <path d="M957 1182 c-10 -10 -17 -28 -17 -39 0 -23 30 -53 53 -53 21 0 57 35
57 55 0 21 -36 55 -58 55 -11 0 -26 -8 -35 -18z m48 -31 c7 -12 -12 -24 -25
-16 -11 7 -4 25 10 25 5 0 11 -4 15 -9z"/>
        <path d="M1367 1174 c-19 -20 61 -108 89 -97 21 8 17 25 -17 66 -28 34 -56 46
-72 31z"/>
        <path d="M396 1104 c-34 -34 -11 -84 39 -84 35 0 55 20 55 54 0 22 -28 46 -55
46 -13 0 -31 -7 -39 -16z m54 -35 c0 -5 -7 -9 -15 -9 -15 0 -20 12 -9 23 8 8
24 -1 24 -14z"/>
        <path d="M672 1070 c5 -54 22 -82 44 -73 32 12 6 123 -28 123 -19 0 -20 -5
-16 -50z"/>
        <path d="M1516 982 c-10 -16 41 -97 63 -100 28 -4 28 29 0 74 -19 32 -51 45
-63 26z"/>
        <path d="M733 879 c-13 -13 10 -91 32 -109 37 -31 45 43 10 96 -17 27 -26 29
-42 13z"/>
        <path d="M1630 760 c0 -40 31 -100 52 -100 18 0 20 5 15 36 -7 44 -32 84 -52
84 -8 0 -15 -9 -15 -20z"/>
        <path d="M814 646 c-8 -20 19 -87 39 -100 12 -7 20 -7 28 1 9 9 7 23 -8 60
-20 49 -48 67 -59 39z"/>
        <path d="M913 424 c-8 -21 33 -104 51 -104 24 0 29 19 15 53 -23 59 -54 83
-66 51z"/>
    </g>
</svg>
